%FSTAX23Y23*%
%MOIN*%
%SFA1B1*%

%IPPOS*%
%AMD19*
4,1,8,-0.035400,0.026500,-0.035400,-0.026500,-0.026500,-0.035400,0.026500,-0.035400,0.035400,-0.026500,0.035400,0.026500,0.026500,0.035400,-0.026500,0.035400,-0.035400,0.026500,0.0*
1,1,0.017800,-0.026500,0.026500*
1,1,0.017800,-0.026500,-0.026500*
1,1,0.017800,0.026500,-0.026500*
1,1,0.017800,0.026500,0.026500*
%
%ADD17C,0.015000*%
%ADD18C,0.070900*%
G04~CAMADD=19~8~0.0~0.0~709.0~709.0~89.0~0.0~15~0.0~0.0~0.0~0.0~0~0.0~0.0~0.0~0.0~0~0.0~0.0~0.0~90.0~708.0~708.0*
%ADD19D19*%
%ADD20O,0.050000X0.100000*%
%ADD21R,0.050000X0.100000*%
%ADD22C,0.025000*%
%ADD23R,0.060000X0.045000*%
%ADD24O,0.053100X0.019700*%
%ADD25C,0.020000*%
%LNencoderdebouncer-1*%
%LPD*%
G36*
X00257Y-00014D02*
X00247Y-00016D01*
X00233Y-00024*
X00225Y-00038*
X00222Y-00053*
Y-00055*
X00161*
X00152Y-00057*
X00145Y-00062*
X00075Y-00131*
X0006Y-00128*
X0004Y-00132*
X00023Y-00143*
X00014Y-00158*
X00003Y-00157*
X0Y-00155*
Y0*
X00255*
X00257Y-00014*
G37*
G36*
X00535Y-00219D02*
X00521Y-00225D01*
X00503Y-00207*
X00494Y-00201*
X00485Y-00199*
X00412*
X004Y-00196*
Y-00121*
Y-00116*
Y-00041*
X0031*
X00298Y-00035*
X00291Y-00024*
X00278Y-00016*
X00268Y-00014*
X00269Y0*
X00535*
Y-00219*
G37*
G36*
X00482Y-00261D02*
X00481Y-00273D01*
X0047Y-00281*
X00469Y-00281*
X00435*
X00426Y-00283*
X00418Y-00288*
X00412Y-00296*
X0041Y-00306*
X00408Y-00309*
X00392*
X00384Y-00311*
X00376Y-00316*
X00346Y-00346*
X00334Y-00338*
X00331Y-00336*
X00322Y-00334*
X00321*
X00319Y-00332*
X00317Y-00322*
X00315Y-00319*
X00317Y-00316*
X00319Y-00306*
X00317Y-00296*
X00312Y-00288*
X00303Y-00283*
X003Y-00282*
Y-00265*
X00315Y-0025*
X00472*
X00482Y-00261*
G37*
G36*
X00222Y-00103D02*
X00225Y-00119D01*
X00233Y-00132*
X00247Y-00141*
X00262Y-00144*
X00278Y-00141*
X00291Y-00132*
X00296Y-00125*
X0031Y-0013*
Y-00196*
X00298Y-002*
X00295Y-00201*
X00287Y-00207*
X00259Y-00234*
X00253Y-00242*
X00251Y-00252*
X00253Y-00262*
X00254Y-00263*
Y-00282*
X00251Y-00283*
X0025Y-00283*
X0019*
X00185Y-0028*
X00175Y-00278*
X00164Y-0028*
X00155Y-00286*
X00149Y-00295*
X00147Y-00306*
X00149Y-00317*
X00155Y-00326*
X00158Y-00328*
X00162Y-00345*
X0015Y-00357*
X00105*
X00096Y-00343*
X00088Y-00338*
Y-00321*
X00096Y-00316*
X00107Y-00299*
X00111Y-0028*
X00107Y-0026*
X00096Y-00243*
X00088Y-00238*
Y-00221*
X00096Y-00216*
X00107Y-00199*
X00111Y-0018*
X00108Y-00164*
X0017Y-00101*
X00222*
Y-00103*
G37*
G36*
X00407Y-00368D02*
X00412Y-00373D01*
X0041Y-00383*
X00412Y-00393*
X00418Y-00401*
X00426Y-00406*
X00429Y-00407*
Y-00442*
X00417Y-00447*
X00407*
X00403*
X00385*
Y-00397*
Y-00371*
X0039Y-00366*
X00407Y-00368*
G37*
G36*
X00164Y-0051D02*
X00175Y-00513D01*
X00185Y-0051*
X00186Y-0051*
X002Y-00516*
Y-00522*
Y-00536*
Y-00602*
X00215*
X00222Y-00613*
Y-00731*
Y-00743*
X00209Y-00745*
X0*
Y-00624*
X00014Y-0062*
X00016Y-00623*
X00024Y-00629*
X00033Y-0063*
X00086*
X00095Y-00629*
X00103Y-00623*
X00109Y-00615*
X0011Y-00606*
Y-00561*
X00162Y-00509*
X00164Y-0051*
G37*
G36*
X00535Y-00475D02*
Y-00745D01*
X00498*
X00494Y-00737*
X00492Y-00731*
X005Y-00719*
X00503Y-00703*
Y-00653*
X005Y-00638*
X00491Y-00624*
X00485Y-0062*
Y-00602*
X00507*
Y-00536*
Y-00527*
Y-00522*
Y-00483*
X00521Y-0047*
X00535Y-00475*
G37*
G36*
X00235Y-00357D02*
X00237Y-00367D01*
X00242Y-00375*
X00242Y-00375*
X00241Y-00375*
X00243*
X00251Y-00381*
X0026Y-00383*
X00277*
Y-00383*
X00284*
Y-00403*
X00294*
X00301Y-00402*
X00308Y-00397*
X00309Y-00396*
X00324Y-00393*
X00326Y-00393*
X00339Y-00407*
Y-00447*
X00317*
Y-00522*
X00322Y-00532*
Y-00557*
X00362*
Y-00565*
X0037*
Y-00597*
X00402*
Y-00579*
X00416Y-00571*
X00417Y-00572*
Y-00602*
X00439*
Y-0062*
X00433Y-00624*
X00425Y-00638*
X00422Y-00653*
Y-00703*
X00425Y-00719*
X00432Y-00731*
X00431Y-00737*
X00427Y-00745*
X00389*
X00384Y-00731*
X00388Y-00728*
X00395Y-00717*
X00398Y-00703*
Y-00686*
X00362*
X00327*
Y-00703*
X00329Y-00717*
X00337Y-00728*
X0034Y-00731*
X00336Y-00745*
X00316*
X00302Y-00743*
Y-00731*
Y-00613*
X00296*
X0029Y-00602*
Y-00536*
Y-00527*
Y-00513*
Y-00447*
X002*
Y-00453*
X00186Y-00459*
X00185Y-00459*
X00175Y-00457*
X00164Y-00459*
X00159Y-00462*
X00155*
X00146Y-00463*
X00138Y-00468*
X00118Y-00488*
X00106Y-00481*
X00106Y-0048*
X00102Y-00462*
X00092Y-00447*
X00083Y-0044*
X00082Y-00437*
X00083Y-00425*
X00096Y-00416*
X00105Y-00402*
X0016*
X00168Y-00401*
X00176Y-00396*
X00217Y-00355*
X00233*
X00235Y-00357*
G37*
%LNencoderdebouncer-2*%
%LPC*%
G36*
X0047Y-00019D02*
Y-00071D01*
X00498*
Y-00053*
X00495Y-0004*
X00488Y-00028*
X00476Y-0002*
X0047Y-00019*
G37*
G36*
X00455D02*
X00449Y-0002D01*
X00437Y-00028*
X00429Y-0004*
X00427Y-00053*
Y-00071*
X00455*
Y-00019*
G37*
G36*
Y-00086D02*
X00427D01*
Y-00103*
X00429Y-00117*
X00437Y-00128*
X00449Y-00136*
X00455Y-00137*
Y-00086*
G37*
G36*
X00498D02*
X0047D01*
Y-00137*
X00476Y-00136*
X00488Y-00128*
X00495Y-00117*
X00498Y-00103*
Y-00086*
G37*
G36*
X00269Y-0039D02*
X00241D01*
X00242Y-00391*
X00246Y-00397*
X00252Y-00402*
X0026Y-00403*
X00269*
Y-0039*
G37*
G36*
X00355Y-00572D02*
X00322D01*
Y-00597*
X00355*
Y-00572*
G37*
G36*
X0037Y-00619D02*
Y-00671D01*
X00398*
Y-00653*
X00395Y-0064*
X00388Y-00628*
X00376Y-0062*
X0037Y-00619*
G37*
G36*
X00355D02*
X00349Y-0062D01*
X00337Y-00628*
X00329Y-0064*
X00327Y-00653*
Y-00671*
X00355*
Y-00619*
G37*
%LNencoderdebouncer-3*%
%LPD*%
G54D17*
X00175Y-00306D02*
X00267D01*
X00245Y-00485D02*
X00262D01*
X00175D02*
X00235D01*
X00155D02*
X00175D01*
X00262Y-00678D02*
Y-00565D01*
X00105Y-00435D02*
X0018D01*
X0006Y-0048D02*
X00105Y-00435D01*
X0018D02*
X00231Y-00383D01*
X0018Y-00435D02*
X00295D01*
X00305Y-00565D02*
Y-00435D01*
Y-00565D02*
X00362D01*
X00231Y-00383D02*
X00277D01*
X00355Y-00225D02*
Y-00158D01*
X00277Y-00306D02*
Y-00252D01*
X00452Y-00474D02*
Y-00383D01*
X00362Y-00485D02*
X00375D01*
X00455Y-00565*
X00462*
X00362Y-00397D02*
Y-00362D01*
X00392Y-00332*
X00452*
X0006Y-0038D02*
X0016D01*
X00207Y-00332*
X00277*
Y-00357D02*
X00322D01*
X00362Y-00397*
Y-00485D02*
Y-00397D01*
Y-00678D02*
Y-00565D01*
X0006Y-0058D02*
X00155Y-00485D01*
X0006Y-0018D02*
X00161Y-00078D01*
X00252*
X00262D02*
X00355D01*
X00462Y-00678D02*
Y-00565D01*
G54D18*
X0006Y-0018D03*
Y-0028D03*
Y-0038D03*
Y-0048D03*
G54D19*
X0006Y-0058D03*
G54D20*
X00462Y-00078D03*
X00262D03*
X00462Y-00678D03*
X00362D03*
G54D21*
X00262Y-00678D03*
G54D22*
X00175Y-00306D03*
Y-00485D03*
G54D23*
X00355Y-00078D03*
Y-00158D03*
X00245Y-00565D03*
Y-00485D03*
X00462Y-00565D03*
Y-00485D03*
X00362D03*
Y-00565D03*
G54D24*
X00277Y-00383D03*
Y-00357D03*
Y-00332D03*
Y-00306D03*
X00452Y-00383D03*
Y-00357D03*
Y-00332D03*
Y-00306D03*
G54D25*
X00355Y-00225D02*
X00485D01*
X00305D02*
X00355D01*
X00462Y-00485D02*
X0047D01*
X0051Y-00445*
Y-0025*
X00485Y-00225D02*
X0051Y-0025D01*
X00277Y-00252D02*
X00305Y-00225D01*
X00452Y-00474D02*
X00462Y-00485D01*
M02*