%FSTAX23Y23*%
%MOIN*%
%SFA1B1*%

%IPPOS*%
%ADD16C,0.020000*%
%ADD17C,0.015000*%
%ADD18R,0.050000X0.100000*%
%ADD19O,0.050000X0.100000*%
%ADD20C,0.059055*%
%ADD21R,0.059055X0.059055*%
%ADD22C,0.025000*%
%LNencoderdebouncer-1*%
%LPD*%
G36*
X00535Y-00745D02*
X0048D01*
X00477Y-00735*
X00481Y-00732*
X0049Y-00719*
X00493Y-00703*
Y-00653*
X0049Y-00638*
X00481Y-00624*
X00468Y-00615*
X00452Y-00612*
X00437Y-00615*
X00423Y-00624*
X00415Y-00638*
X00412Y-00653*
Y-00703*
X00415Y-00719*
X00423Y-00732*
X00427Y-00735*
X00424Y-00745*
X00371*
X00368Y-00735*
X00377Y-00728*
X00385Y-00717*
X00388Y-00703*
Y-00686*
X00352*
X00317*
Y-00703*
X00319Y-00717*
X00327Y-00728*
X00336Y-00735*
X00333Y-00745*
X00302*
X00292Y-00743*
Y-00735*
Y-00613*
X00212*
Y-00735*
Y-00743*
X00203Y-00745*
X0*
Y-00632*
X00002Y-00623*
X0001*
X00091*
Y-00534*
X0001*
X00002*
X0Y-00525*
Y-00495*
X0001Y-00494*
X0001Y-00494*
X00018Y-00507*
X00031Y-00516*
X00039Y-00517*
Y-00479*
Y-0044*
X00031Y-00441*
X00018Y-0045*
X0001Y-00463*
X0001Y-00463*
X0Y-00462*
Y-00406*
X0001Y-00403*
X00015Y-00411*
X00029Y-0042*
X00047Y-00424*
X00064Y-0042*
X00079Y-00411*
X00089Y-00396*
X00092Y-00379*
X00089Y-00361*
X00079Y-00346*
X00064Y-00337*
X00049Y-00334*
Y-00323*
X00064Y-0032*
X00079Y-00311*
X00089Y-00296*
X00092Y-00279*
X00089Y-00261*
X00079Y-00246*
X00064Y-00237*
X00049Y-00234*
Y-00223*
X00064Y-0022*
X00079Y-00211*
X00089Y-00196*
X00092Y-00179*
X00089Y-00161*
X00079Y-00146*
X00064Y-00137*
X00047Y-00133*
X00029Y-00137*
X00015Y-00146*
X0001Y-00154*
X0Y-00151*
Y0*
X00535*
Y-00745*
G37*
%LNencoderdebouncer-2*%
%LPC*%
G36*
X0046Y-00019D02*
Y-00071D01*
X00488*
Y-00053*
X00485Y-0004*
X00477Y-00028*
X00466Y-0002*
X0046Y-00019*
G37*
G36*
X00445D02*
X00439Y-0002D01*
X00427Y-00028*
X00419Y-0004*
X00417Y-00053*
Y-00071*
X00445*
Y-00019*
G37*
G36*
Y-00086D02*
X00417D01*
Y-00103*
X00419Y-00117*
X00427Y-00128*
X00439Y-00136*
X00445Y-00137*
Y-00086*
G37*
G36*
X00488D02*
X0046D01*
Y-00137*
X00466Y-00136*
X00477Y-00128*
X00485Y-00117*
X00488Y-00103*
Y-00086*
G37*
G36*
X00252Y-00012D02*
X00237Y-00015D01*
X00223Y-00024*
X00215Y-00038*
X00212Y-00053*
Y-00103*
X00215Y-00119*
X00223Y-00132*
X00237Y-00141*
X00252Y-00144*
X00268Y-00141*
X00281Y-00132*
X0029Y-00119*
X00293Y-00103*
Y-00053*
X0029Y-00038*
X00281Y-00024*
X00268Y-00015*
X00252Y-00012*
G37*
G36*
X00054Y-0044D02*
Y-00471D01*
X00086*
X00084Y-00463*
X00075Y-0045*
X00062Y-00441*
X00054Y-0044*
G37*
G36*
X00086Y-00486D02*
X00054D01*
Y-00517*
X00062Y-00516*
X00075Y-00507*
X00084Y-00494*
X00086Y-00486*
G37*
G36*
X00313Y-00309D02*
X00302Y-00311D01*
X00293Y-00317*
X00287Y-00326*
X00285Y-00337*
X00287Y-00347*
X00293Y-00357*
X00302Y-00363*
X00307Y-00364*
X00315Y-00372*
Y-00494*
X00312Y-00499*
X0031Y-0051*
X00312Y-0052*
X00318Y-00529*
X00328Y-00535*
X00338Y-00538*
X00349Y-00535*
X00358Y-00529*
X00364Y-0052*
X00366Y-0051*
X00364Y-00499*
X00361Y-00494*
Y-00362*
X0036Y-00354*
X00355Y-00346*
X0034Y-00331*
X00339Y-00326*
X00333Y-00317*
X00323Y-00311*
X00313Y-00309*
G37*
G36*
X00364Y-00111D02*
X00353Y-00114D01*
X00344Y-0012*
X00338Y-00129*
X00338Y-0013*
X00171Y-00296*
X00166Y-00304*
X00164Y-00314*
Y-00567*
X00164Y-00568*
X00161Y-00579*
X00164Y-00589*
X0017Y-00598*
X00179Y-00604*
X0019Y-00607*
X002Y-00604*
X00209Y-00598*
X00215Y-00589*
X00218Y-00579*
X00215Y-00568*
X00215Y-00567*
Y-00324*
X00374Y-00166*
X00375Y-00165*
X00384Y-00159*
X0039Y-0015*
X00392Y-0014*
X0039Y-00129*
X00384Y-0012*
X00375Y-00114*
X00364Y-00111*
G37*
G36*
X0036Y-00619D02*
Y-00671D01*
X00388*
Y-00653*
X00385Y-0064*
X00377Y-00628*
X00366Y-0062*
X0036Y-00619*
G37*
G36*
X00345D02*
X00339Y-0062D01*
X00327Y-00628*
X00319Y-0064*
X00317Y-00653*
Y-00671*
X00345*
Y-00619*
G37*
%LNencoderdebouncer-3*%
%LPD*%
G54D16*
X0019Y-00314D02*
X00364Y-0014D01*
X0019Y-00579D02*
Y-00314D01*
G54D17*
X00313Y-00337D02*
X00338Y-00362D01*
Y-0051D02*
Y-00362D01*
G54D18*
X00252Y-00678D03*
G54D19*
X00352Y-00678D03*
X00452D03*
X00252Y-00078D03*
X00452D03*
G54D20*
X00047Y-00179D03*
Y-00279D03*
Y-00379D03*
Y-00479D03*
G54D21*
X00047Y-00579D03*
G54D22*
X0019Y-00579D03*
X00364Y-0014D03*
X00338Y-0051D03*
X00313Y-00337D03*
M02*