%FSTAX23Y23*%
%MOIN*%
%SFA1B1*%

%IPPOS*%
%ADD10C,0.010000*%
%ADD11C,0.005000*%
%LNencoderdebouncer-1*%
%LPD*%
G54D10*
X00202Y-00403D02*
D01*
X00204Y-00403*
X00206Y-00403*
X00207Y-00403*
X00209Y-00402*
X00211Y-00402*
X00212Y-00401*
X00214Y-004*
X00216Y-00399*
X00217Y-00398*
X00218Y-00397*
X0022Y-00396*
X00221Y-00395*
X00222Y-00394*
X00223Y-00392*
X00224Y-00391*
X00225Y-00389*
X00225Y-00388*
X00226Y-00386*
X00227Y-00384*
X00227Y-00383*
X00227Y-00381*
X00227Y-00379*
Y-00377*
X00227Y-00376*
X00227Y-00374*
X00227Y-00372*
X00226Y-0037*
X00225Y-00369*
X00225Y-00367*
X00224Y-00366*
X00223Y-00364*
X00222Y-00363*
X00221Y-00361*
X0022Y-0036*
X00218Y-00359*
X00217Y-00358*
X00216Y-00357*
X00214Y-00356*
X00212Y-00355*
X00211Y-00355*
X00209Y-00354*
X00207Y-00354*
X00206Y-00353*
X00204Y-00353*
X00202Y-00353*
Y-00593D02*
Y-00403D01*
Y-00353D02*
Y-00163D01*
X00502*
Y-00593D02*
Y-00163D01*
X00202Y-00593D02*
X00502D01*
G54D11*
X00119Y-00172D02*
Y-00192D01*
X00129*
X00133Y-00189*
Y-00185*
X00129Y-00182*
X00119*
X00129*
X00133Y-00179*
Y-00175*
X00129Y-00172*
X00119*
X00139D02*
X00153D01*
X00146*
Y-00192*
X00159D02*
Y-00172D01*
X00173Y-00192*
Y-00172*
X00133Y-00275D02*
X00129Y-00272D01*
X00123*
X00119Y-00275*
Y-00279*
X00123Y-00282*
X00129*
X00133Y-00285*
Y-00289*
X00129Y-00292*
X00123*
X00119Y-00289*
X00139Y-00292D02*
Y-00272D01*
X00149*
X00153Y-00275*
Y-00282*
X00149Y-00285*
X00139*
X00146D02*
X00153Y-00292D01*
X00159Y-00272D02*
Y-00292D01*
X00166Y-00285*
X00173Y-00292*
Y-00272*
X00133Y-00375D02*
X00129Y-00372D01*
X00123*
X00119Y-00375*
Y-00379*
X00123Y-00382*
X00129*
X00133Y-00385*
Y-00389*
X00129Y-00392*
X00123*
X00119Y-00389*
X00139Y-00372D02*
Y-00392D01*
X00149*
X00153Y-00389*
Y-00375*
X00149Y-00372*
X00139*
X00159D02*
Y-00392D01*
X00169*
X00173Y-00389*
Y-00385*
X00169Y-00382*
X00159*
X00169*
X00173Y-00379*
Y-00375*
X00169Y-00372*
X00159*
X00133Y-00475D02*
X00129Y-00472D01*
X00123*
X00119Y-00475*
Y-00489*
X00123Y-00492*
X00129*
X00133Y-00489*
Y-00482*
X00126*
X00139Y-00492D02*
Y-00472D01*
X00153Y-00492*
Y-00472*
X00159D02*
Y-00492D01*
X00169*
X00173Y-00489*
Y-00475*
X00169Y-00472*
X00159*
X00119Y-00572D02*
Y-00585D01*
X00126Y-00592*
X00133Y-00585*
Y-00572*
X00153Y-00579D02*
X00143D01*
X00139Y-00582*
Y-00589*
X00143Y-00592*
X00153*
X00173Y-00579D02*
X00163D01*
X00159Y-00582*
Y-00589*
X00163Y-00592*
X00173*
M02*