%FSTAX23Y23*%
%MOIN*%
%SFA1B1*%

%IPPOS*%
%ADD11C,0.005000*%
%ADD30C,0.023622*%
%ADD31C,0.009843*%
%ADD32C,0.000984*%
%ADD33C,0.007874*%
%LNencoderdebouncer-1*%
%LPD*%
G54D11*
X0Y-0012D02*
X00205D01*
Y0*
X00171Y-00021D02*
X00185D01*
Y-00041*
X00171*
X00185Y-00031D02*
X00178D01*
X00165Y-00041D02*
Y-00028D01*
X00155*
X00151Y-00031*
Y-00041*
X00131Y-00028D02*
X00141D01*
X00145Y-00031*
Y-00038*
X00141Y-00041*
X00131*
X00121D02*
X00115D01*
X00111Y-00038*
Y-00031*
X00115Y-00028*
X00121*
X00125Y-00031*
Y-00038*
X00121Y-00041*
X00091Y-00021D02*
Y-00041D01*
X00101*
X00105Y-00038*
Y-00031*
X00101Y-00028*
X00091*
X00075Y-00041D02*
X00081D01*
X00085Y-00038*
Y-00031*
X00081Y-00028*
X00075*
X00071Y-00031*
Y-00035*
X00085*
X00065Y-00028D02*
Y-00041D01*
Y-00035*
X00061Y-00031*
X00058Y-00028*
X00055*
X00185Y-00053D02*
Y-00073D01*
X00175*
X00171Y-0007*
Y-00056*
X00175Y-00053*
X00185*
X00155Y-00073D02*
X00161D01*
X00165Y-0007*
Y-00063*
X00161Y-0006*
X00155*
X00151Y-00063*
Y-00066*
X00165*
X00145Y-00053D02*
Y-00073D01*
X00135*
X00131Y-0007*
Y-00066*
Y-00063*
X00135Y-0006*
X00145*
X00121Y-00073D02*
X00115D01*
X00111Y-0007*
Y-00063*
X00115Y-0006*
X00121*
X00125Y-00063*
Y-0007*
X00121Y-00073*
X00105Y-0006D02*
Y-0007D01*
X00101Y-00073*
X00091*
Y-0006*
X00085Y-00073D02*
Y-0006D01*
X00075*
X00071Y-00063*
Y-00073*
X00051Y-0006D02*
X00061D01*
X00065Y-00063*
Y-0007*
X00061Y-00073*
X00051*
X00035D02*
X00041D01*
X00045Y-0007*
Y-00063*
X00041Y-0006*
X00035*
X00031Y-00063*
Y-00066*
X00045*
X00025Y-0006D02*
Y-00073D01*
Y-00066*
X00021Y-00063*
X00018Y-0006*
X00015*
X00185Y-00105D02*
Y-00085D01*
X00175*
X00171Y-00088*
Y-00095*
X00175Y-00098*
X00185*
X00178D02*
X00171Y-00105D01*
X00155D02*
X00161D01*
X00165Y-00101*
Y-00095*
X00161Y-00091*
X00155*
X00151Y-00095*
Y-00098*
X00165*
X00145Y-00091D02*
X00138Y-00105D01*
X00131Y-00091*
X00125Y-00105D02*
Y-00101D01*
X00121*
Y-00105*
X00125*
X00075D02*
X00088D01*
X00075Y-00091*
Y-00088*
X00078Y-00085*
X00085*
X00088Y-00088*
X00175Y-00572D02*
Y-00585D01*
X00168Y-00592*
X00161Y-00585*
Y-00572*
X00141Y-00579D02*
X00151D01*
X00155Y-00582*
Y-00589*
X00151Y-00592*
X00141*
X00121Y-00579D02*
X00131D01*
X00135Y-00582*
Y-00589*
X00131Y-00592*
X00121*
X00161Y-00475D02*
X00165Y-00472D01*
X00171*
X00175Y-00475*
Y-00489*
X00171Y-00492*
X00165*
X00161Y-00489*
Y-00482*
X00168*
X00155Y-00492D02*
Y-00472D01*
X00141Y-00492*
Y-00472*
X00135D02*
Y-00492D01*
X00125*
X00121Y-00489*
Y-00475*
X00125Y-00472*
X00135*
X00161Y-00375D02*
X00165Y-00372D01*
X00171*
X00175Y-00375*
Y-00379*
X00171Y-00382*
X00165*
X00161Y-00385*
Y-00389*
X00165Y-00392*
X00171*
X00175Y-00389*
X00155Y-00372D02*
Y-00392D01*
X00145*
X00141Y-00389*
Y-00375*
X00145Y-00372*
X00155*
X00135D02*
Y-00392D01*
X00125*
X00121Y-00389*
Y-00385*
X00125Y-00382*
X00135*
X00125*
X00121Y-00379*
Y-00375*
X00125Y-00372*
X00135*
X00161Y-00275D02*
X00165Y-00272D01*
X00171*
X00175Y-00275*
Y-00279*
X00171Y-00282*
X00165*
X00161Y-00285*
Y-00289*
X00165Y-00292*
X00171*
X00175Y-00289*
X00155Y-00292D02*
Y-00272D01*
X00145*
X00141Y-00275*
Y-00282*
X00145Y-00285*
X00155*
X00148D02*
X00141Y-00292D01*
X00135Y-00272D02*
Y-00292D01*
X00128Y-00285*
X00121Y-00292*
Y-00272*
X00175Y-00172D02*
Y-00192D01*
X00165*
X00161Y-00189*
Y-00185*
X00165Y-00182*
X00175*
X00165*
X00161Y-00179*
Y-00175*
X00165Y-00172*
X00175*
X00155D02*
X00141D01*
X00148*
Y-00192*
X00135D02*
Y-00172D01*
X00121Y-00192*
Y-00172*
X0035Y-00145D02*
Y-0012D01*
X00337*
X00333Y-00124*
Y-00132*
X00337Y-00136*
X0035*
X00341D02*
X00333Y-00145D01*
X00325Y-00124D02*
X0032Y-0012D01*
X00312*
X00308Y-00124*
Y-00128*
X00312Y-00132*
X00316*
X00312*
X00308Y-00136*
Y-0014*
X00312Y-00145*
X0032*
X00325Y-0014*
Y-0062D02*
Y-00595D01*
X00312*
X00308Y-00599*
Y-00607*
X00312Y-00611*
X00325*
X00316D02*
X00308Y-0062D01*
X00283D02*
X003D01*
X00283Y-00603*
Y-00599*
X00287Y-00595*
X00295*
X003Y-00599*
X0052Y-0034D02*
Y-00315D01*
X00507*
X00503Y-00319*
Y-00327*
X00507Y-00331*
X0052*
X00511D02*
X00503Y-0034D01*
X00495D02*
X00486D01*
X0049*
Y-00315*
X00495Y-00319*
X00503Y-00499D02*
X00507Y-00495D01*
X00515*
X0052Y-00499*
Y-00515*
X00515Y-0052*
X00507*
X00503Y-00515*
X00495Y-0052D02*
X00486D01*
X0049*
Y-00495*
X00495Y-00499*
G54D30*
X00359Y-00385D02*
D01*
X00359Y-00385*
X00359Y-00384*
X00359Y-00383*
X00358Y-00382*
X00358Y-00381*
X00358Y-00381*
X00358Y-0038*
X00357Y-00379*
X00357Y-00378*
X00356Y-00378*
X00356Y-00377*
X00355Y-00377*
X00354Y-00376*
X00354Y-00376*
X00353Y-00375*
X00352Y-00375*
X00352Y-00374*
X00351Y-00374*
X0035Y-00374*
X00349Y-00374*
X00348Y-00374*
X00348Y-00374*
X00347*
X00346Y-00374*
X00345Y-00374*
X00344Y-00374*
X00343Y-00374*
X00343Y-00374*
X00342Y-00375*
X00341Y-00375*
X00341Y-00376*
X0034Y-00376*
X00339Y-00377*
X00339Y-00377*
X00338Y-00378*
X00338Y-00378*
X00337Y-00379*
X00337Y-0038*
X00336Y-00381*
X00336Y-00381*
X00336Y-00382*
X00336Y-00383*
X00335Y-00384*
X00335Y-00385*
X00335Y-00385*
X00335Y-00386*
X00335Y-00387*
X00336Y-00388*
X00336Y-00389*
X00336Y-00389*
X00336Y-0039*
X00337Y-00391*
X00337Y-00392*
X00338Y-00392*
X00338Y-00393*
X00339Y-00394*
X00339Y-00394*
X0034Y-00395*
X00341Y-00395*
X00341Y-00396*
X00342Y-00396*
X00343Y-00396*
X00343Y-00397*
X00344Y-00397*
X00345Y-00397*
X00346Y-00397*
X00347Y-00397*
X00348*
X00348Y-00397*
X00349Y-00397*
X0035Y-00397*
X00351Y-00397*
X00352Y-00396*
X00352Y-00396*
X00353Y-00396*
X00354Y-00395*
X00354Y-00395*
X00355Y-00394*
X00356Y-00394*
X00356Y-00393*
X00357Y-00392*
X00357Y-00392*
X00358Y-00391*
X00358Y-0039*
X00358Y-00389*
X00358Y-00389*
X00359Y-00388*
X00359Y-00387*
X00359Y-00386*
X00359Y-00385*
G54D31*
X004Y-00467D02*
D01*
X004Y-00467*
X004Y-00466*
X004Y-00466*
X004Y-00466*
X004Y-00465*
X004Y-00465*
X004Y-00465*
X004Y-00464*
X00399Y-00464*
X00399Y-00464*
X00399Y-00464*
X00399Y-00463*
X00398Y-00463*
X00398Y-00463*
X00398Y-00463*
X00398Y-00463*
X00397Y-00463*
X00397Y-00462*
X00397Y-00462*
X00396Y-00462*
X00396Y-00462*
X00396Y-00462*
X00395*
X00395Y-00462*
X00395Y-00462*
X00394Y-00462*
X00394Y-00462*
X00394Y-00463*
X00393Y-00463*
X00393Y-00463*
X00393Y-00463*
X00392Y-00463*
X00392Y-00463*
X00392Y-00464*
X00392Y-00464*
X00391Y-00464*
X00391Y-00464*
X00391Y-00465*
X00391Y-00465*
X00391Y-00465*
X00391Y-00466*
X00391Y-00466*
X0039Y-00466*
X0039Y-00467*
X0039Y-00467*
X0039Y-00467*
X0039Y-00468*
X00391Y-00468*
X00391Y-00468*
X00391Y-00469*
X00391Y-00469*
X00391Y-00469*
X00391Y-0047*
X00391Y-0047*
X00392Y-0047*
X00392Y-00471*
X00392Y-00471*
X00392Y-00471*
X00393Y-00471*
X00393Y-00471*
X00393Y-00472*
X00394Y-00472*
X00394Y-00472*
X00394Y-00472*
X00395Y-00472*
X00395Y-00472*
X00395Y-00472*
X00396*
X00396Y-00472*
X00396Y-00472*
X00397Y-00472*
X00397Y-00472*
X00397Y-00472*
X00398Y-00472*
X00398Y-00471*
X00398Y-00471*
X00398Y-00471*
X00399Y-00471*
X00399Y-00471*
X00399Y-0047*
X00399Y-0047*
X004Y-0047*
X004Y-00469*
X004Y-00469*
X004Y-00469*
X004Y-00468*
X004Y-00468*
X004Y-00468*
X004Y-00467*
X004Y-00467*
G54D32*
X001Y-00617D02*
X00195D01*
X001Y-00619D02*
X00195D01*
X001Y-0062D02*
X00195D01*
X001Y-0062D02*
X00195D01*
X001Y-00622D02*
X00195D01*
X001Y-00622D02*
X00195D01*
X001Y-00624D02*
X00195D01*
X001Y-00625D02*
X00195D01*
X001Y-00625D02*
X00195D01*
X001Y-00627D02*
X00195D01*
X001Y-00627D02*
X0011D01*
X00184D02*
X00195D01*
X001Y-00629D02*
X0011D01*
X00184D02*
X00195D01*
X001Y-0063D02*
X0011D01*
X00184D02*
X00195D01*
X001Y-0063D02*
X0011D01*
X00184D02*
X00195D01*
X001Y-00632D02*
X0011D01*
X00184D02*
X00195D01*
X001Y-00632D02*
X0011D01*
X00184D02*
X00195D01*
X001Y-00634D02*
X0011D01*
X00184D02*
X00195D01*
X001Y-00635D02*
X0011D01*
X00184D02*
X00195D01*
X001Y-00635D02*
X0011D01*
X00184D02*
X00195D01*
X001Y-00637D02*
X0011D01*
X00184D02*
X00195D01*
X001Y-00637D02*
X0011D01*
X00184D02*
X00195D01*
X001Y-00639D02*
X0011D01*
X0012D02*
X00132D01*
X00137D02*
X00174D01*
X00184D02*
X00195D01*
X001Y-0064D02*
X0011D01*
X0012D02*
X00132D01*
X00137D02*
X00174D01*
X00184D02*
X00195D01*
X001Y-0064D02*
X0011D01*
X0012D02*
X00132D01*
X00137D02*
X00174D01*
X00184D02*
X00195D01*
X001Y-00642D02*
X0011D01*
X0012D02*
X00132D01*
X00137D02*
X00174D01*
X00184D02*
X00195D01*
X001Y-00642D02*
X0011D01*
X0012D02*
X00132D01*
X00137D02*
X00174D01*
X00184D02*
X00195D01*
X001Y-00644D02*
X0011D01*
X0012D02*
X00132D01*
X00137D02*
X00174D01*
X00184D02*
X00195D01*
X001Y-00645D02*
X0011D01*
X0012D02*
X00132D01*
X00137D02*
X00174D01*
X00184D02*
X00195D01*
X001Y-00645D02*
X0011D01*
X0012D02*
X00132D01*
X00137D02*
X00174D01*
X00184D02*
X00195D01*
X001Y-00647D02*
X0011D01*
X0012D02*
X00132D01*
X00137D02*
X00174D01*
X00184D02*
X00195D01*
X001Y-00647D02*
X0011D01*
X0012D02*
X00132D01*
X00137D02*
X00174D01*
X00184D02*
X00195D01*
X001Y-00649D02*
X0011D01*
X0012D02*
X00132D01*
X00162D02*
X00174D01*
X00184D02*
X00195D01*
X001Y-0065D02*
X0011D01*
X0012D02*
X00132D01*
X00162D02*
X00174D01*
X00184D02*
X00195D01*
X001Y-0065D02*
X0011D01*
X0012D02*
X00132D01*
X00162D02*
X00174D01*
X00184D02*
X00195D01*
X001Y-00652D02*
X0011D01*
X0012D02*
X00132D01*
X00162D02*
X00174D01*
X00184D02*
X00195D01*
X001Y-00652D02*
X0011D01*
X0012D02*
X00132D01*
X00162D02*
X00174D01*
X00184D02*
X00195D01*
X001Y-00654D02*
X0011D01*
X0012D02*
X00132D01*
X00162D02*
X00174D01*
X00184D02*
X00195D01*
X001Y-00655D02*
X0011D01*
X0012D02*
X00132D01*
X00162D02*
X00174D01*
X00184D02*
X00195D01*
X001Y-00655D02*
X0011D01*
X0012D02*
X00132D01*
X00162D02*
X00174D01*
X00184D02*
X00195D01*
X001Y-00657D02*
X0011D01*
X0012D02*
X00132D01*
X00162D02*
X00174D01*
X00184D02*
X00195D01*
X001Y-00657D02*
X0011D01*
X0012D02*
X00132D01*
X00162D02*
X00174D01*
X00184D02*
X00195D01*
X001Y-00659D02*
X0011D01*
X0012D02*
X00132D01*
X00162D02*
X00174D01*
X00184D02*
X00195D01*
X001Y-0066D02*
X0011D01*
X0012D02*
X00132D01*
X00162D02*
X00174D01*
X00184D02*
X00195D01*
X001Y-0066D02*
X0011D01*
X0012D02*
X00132D01*
X00162D02*
X00174D01*
X00184D02*
X00195D01*
X001Y-00662D02*
X0011D01*
X0012D02*
X00132D01*
X00162D02*
X00174D01*
X00184D02*
X00195D01*
X001Y-00662D02*
X0011D01*
X0012D02*
X00132D01*
X00162D02*
X00174D01*
X00184D02*
X00195D01*
X001Y-00664D02*
X0011D01*
X0012D02*
X00132D01*
X00162D02*
X00174D01*
X00184D02*
X00195D01*
X001Y-00665D02*
X0011D01*
X0012D02*
X00132D01*
X00162D02*
X00174D01*
X00184D02*
X00195D01*
X001Y-00665D02*
X0011D01*
X0012D02*
X00132D01*
X00162D02*
X00174D01*
X00184D02*
X00195D01*
X001Y-00667D02*
X0011D01*
X0012D02*
X00132D01*
X00162D02*
X00174D01*
X00184D02*
X00195D01*
X001Y-00667D02*
X0011D01*
X0012D02*
X00132D01*
X00162D02*
X00174D01*
X00184D02*
X00195D01*
X001Y-00669D02*
X0011D01*
X0012D02*
X00132D01*
X00162D02*
X00174D01*
X00184D02*
X00195D01*
X001Y-0067D02*
X0011D01*
X0012D02*
X00132D01*
X00184D02*
X00195D01*
X001Y-0067D02*
X0011D01*
X0012D02*
X00132D01*
X00184D02*
X00195D01*
X001Y-00672D02*
X0011D01*
X0012D02*
X00132D01*
X00184D02*
X00195D01*
X001Y-00672D02*
X0011D01*
X0012D02*
X00132D01*
X00184D02*
X00195D01*
X001Y-00674D02*
X0011D01*
X0012D02*
X00132D01*
X00184D02*
X00195D01*
X001Y-00675D02*
X0011D01*
X0012D02*
X00174D01*
X00184D02*
X00195D01*
X001Y-00675D02*
X0011D01*
X0012D02*
X00174D01*
X00184D02*
X00195D01*
X001Y-00677D02*
X0011D01*
X0012D02*
X00174D01*
X00184D02*
X00195D01*
X001Y-00677D02*
X0011D01*
X0012D02*
X00174D01*
X00184D02*
X00195D01*
X001Y-00679D02*
X0011D01*
X0012D02*
X00174D01*
X00184D02*
X00195D01*
X001Y-0068D02*
X0011D01*
X0012D02*
X00174D01*
X00184D02*
X00195D01*
X001Y-0068D02*
X0011D01*
X0012D02*
X00174D01*
X00184D02*
X00195D01*
X001Y-00682D02*
X0011D01*
X0012D02*
X00174D01*
X00184D02*
X00195D01*
X001Y-00682D02*
X0011D01*
X0012D02*
X00174D01*
X00184D02*
X00195D01*
X001Y-00684D02*
X0011D01*
X0012D02*
X00174D01*
X00184D02*
X00195D01*
X001Y-00685D02*
X0011D01*
X0012D02*
X00174D01*
X00184D02*
X00195D01*
X001Y-00685D02*
X0011D01*
X00162D02*
X00174D01*
X00184D02*
X00195D01*
X001Y-00687D02*
X0011D01*
X00162D02*
X00174D01*
X00184D02*
X00195D01*
X001Y-00687D02*
X0011D01*
X00162D02*
X00174D01*
X00184D02*
X00195D01*
X001Y-00689D02*
X0011D01*
X00162D02*
X00174D01*
X00184D02*
X00195D01*
X001Y-0069D02*
X0011D01*
X00162D02*
X00174D01*
X00184D02*
X00195D01*
X001Y-0069D02*
X0011D01*
X0012D02*
X00132D01*
X00162D02*
X00174D01*
X00184D02*
X00195D01*
X001Y-00692D02*
X0011D01*
X0012D02*
X00132D01*
X00162D02*
X00174D01*
X00184D02*
X00195D01*
X001Y-00692D02*
X0011D01*
X0012D02*
X00132D01*
X00162D02*
X00174D01*
X00184D02*
X00195D01*
X001Y-00694D02*
X0011D01*
X0012D02*
X00132D01*
X00162D02*
X00174D01*
X00184D02*
X00195D01*
X001Y-00695D02*
X0011D01*
X0012D02*
X00132D01*
X00162D02*
X00174D01*
X00184D02*
X00195D01*
X001Y-00695D02*
X0011D01*
X0012D02*
X00132D01*
X00162D02*
X00174D01*
X00184D02*
X00195D01*
X001Y-00697D02*
X0011D01*
X0012D02*
X00132D01*
X00162D02*
X00174D01*
X00184D02*
X00195D01*
X001Y-00697D02*
X0011D01*
X0012D02*
X00132D01*
X00162D02*
X00174D01*
X00184D02*
X00195D01*
X001Y-00699D02*
X0011D01*
X0012D02*
X00132D01*
X00162D02*
X00174D01*
X00184D02*
X00195D01*
X001Y-007D02*
X0011D01*
X0012D02*
X00132D01*
X00162D02*
X00174D01*
X00184D02*
X00195D01*
X001Y-007D02*
X0011D01*
X0012D02*
X00132D01*
X00162D02*
X00174D01*
X00184D02*
X00195D01*
X001Y-00702D02*
X0011D01*
X0012D02*
X00132D01*
X00162D02*
X00174D01*
X00184D02*
X00195D01*
X001Y-00702D02*
X0011D01*
X0012D02*
X00132D01*
X00162D02*
X00174D01*
X00184D02*
X00195D01*
X001Y-00704D02*
X0011D01*
X0012D02*
X00132D01*
X00162D02*
X00174D01*
X00184D02*
X00195D01*
X001Y-00705D02*
X0011D01*
X0012D02*
X00132D01*
X00162D02*
X00174D01*
X00184D02*
X00195D01*
X001Y-00705D02*
X0011D01*
X0012D02*
X00132D01*
X00162D02*
X00174D01*
X00184D02*
X00195D01*
X001Y-00707D02*
X0011D01*
X0012D02*
X00132D01*
X00162D02*
X00174D01*
X00184D02*
X00195D01*
X001Y-00707D02*
X0011D01*
X0012D02*
X00132D01*
X00162D02*
X00174D01*
X00184D02*
X00195D01*
X001Y-00709D02*
X0011D01*
X0012D02*
X00132D01*
X00162D02*
X00174D01*
X00184D02*
X00195D01*
X001Y-0071D02*
X0011D01*
X0012D02*
X00132D01*
X00162D02*
X00174D01*
X00184D02*
X00195D01*
X001Y-0071D02*
X0011D01*
X0012D02*
X00132D01*
X00162D02*
X00174D01*
X00184D02*
X00195D01*
X001Y-00712D02*
X0011D01*
X0012D02*
X00132D01*
X00162D02*
X00174D01*
X00184D02*
X00195D01*
X001Y-00712D02*
X0011D01*
X0012D02*
X00132D01*
X00162D02*
X00174D01*
X00184D02*
X00195D01*
X001Y-00714D02*
X0011D01*
X0012D02*
X00132D01*
X00162D02*
X00174D01*
X00184D02*
X00195D01*
X001Y-00715D02*
X0011D01*
X0012D02*
X00132D01*
X00162D02*
X00174D01*
X00184D02*
X00195D01*
X001Y-00715D02*
X0011D01*
X0012D02*
X00132D01*
X00162D02*
X00174D01*
X00184D02*
X00195D01*
X001Y-00717D02*
X0011D01*
X0012D02*
X00132D01*
X00162D02*
X00174D01*
X00184D02*
X00195D01*
X001Y-00717D02*
X0011D01*
X0012D02*
X00132D01*
X00162D02*
X00174D01*
X00184D02*
X00195D01*
X001Y-00719D02*
X0011D01*
X0012D02*
X00132D01*
X00162D02*
X00174D01*
X00184D02*
X00195D01*
X001Y-0072D02*
X0011D01*
X0012D02*
X00132D01*
X00162D02*
X00174D01*
X00184D02*
X00195D01*
X001Y-0072D02*
X0011D01*
X0012D02*
X00132D01*
X00162D02*
X00174D01*
X00184D02*
X00195D01*
X001Y-00722D02*
X0011D01*
X0012D02*
X00132D01*
X00162D02*
X00174D01*
X00184D02*
X00195D01*
X001Y-00722D02*
X0011D01*
X00184D02*
X00195D01*
X001Y-00724D02*
X0011D01*
X00184D02*
X00195D01*
X001Y-00725D02*
X0011D01*
X00184D02*
X00195D01*
X001Y-00725D02*
X0011D01*
X00184D02*
X00195D01*
X001Y-00727D02*
X0011D01*
X00184D02*
X00195D01*
X001Y-00727D02*
X0011D01*
X00184D02*
X00195D01*
X001Y-00729D02*
X0011D01*
X00184D02*
X00195D01*
X001Y-0073D02*
X0011D01*
X00184D02*
X00195D01*
X001Y-0073D02*
X0011D01*
X00184D02*
X00195D01*
X001Y-00732D02*
X0011D01*
X00184D02*
X00195D01*
X001Y-00732D02*
X00195D01*
X001Y-00734D02*
X00195D01*
X001Y-00735D02*
X00195D01*
X001Y-00735D02*
X00195D01*
X001Y-00737D02*
X00195D01*
X001Y-00737D02*
X00195D01*
X001Y-00739D02*
X00195D01*
X001Y-0074D02*
X00195D01*
X001Y-0074D02*
X00195D01*
X001Y-00742D02*
X00195D01*
X001Y-00742D02*
X00195D01*
G54D33*
X00264Y-00425D02*
Y-00334D01*
X00387Y-00425D02*
Y-00334D01*
X00264D02*
X00387D01*
X00264Y-00425D02*
X00387D01*
M02*