%FSTAX23Y23*%
%MOIN*%
%SFA1B1*%

%IPPOS*%
%ADD16C,0.020000*%
%ADD17C,0.015000*%
%ADD18R,0.050000X0.100000*%
%ADD19O,0.050000X0.100000*%
%ADD20C,0.059055*%
%ADD21R,0.059055X0.059055*%
%ADD22C,0.025000*%
%ADD23R,0.045000X0.060000*%
%ADD24R,0.060000X0.045000*%
%ADD25O,0.017716X0.053150*%
%ADD26C,0.030000*%
%LNencoderdebouncer-1*%
%LPD*%
G36*
X00129Y-00426D02*
X00137Y-00431D01*
X00145Y-00432*
X00259*
X00264Y-00442*
X00263Y-00449*
Y-00485*
X00264Y-00492*
Y-00504*
X00258Y-00512*
X00257Y-00512*
X00221*
Y-00537*
X00209Y-00548*
X00091*
Y-00534*
X0001*
X00002*
X0Y-00525*
Y-00495*
X0001Y-00494*
X0001Y-00494*
X00018Y-00507*
X00031Y-00516*
X00039Y-00517*
Y-00479*
Y-0044*
X00031Y-00441*
X00018Y-0045*
X0001Y-00463*
X0001Y-00463*
X0Y-00462*
Y-00406*
X0001Y-00403*
X00015Y-00411*
X00029Y-0042*
X00047Y-00424*
X00064Y-0042*
X00079Y-00411*
X00085Y-00402*
X00105*
X00129Y-00426*
G37*
G36*
X00535Y-00514D02*
X00525Y-00517D01*
X00522Y-00513*
X0049Y-00482*
Y-00432*
X00468*
Y-00409*
X0049*
Y-00334*
Y-00329*
Y-00254*
X00402*
X00401Y-00245*
Y-00155*
X00398*
X00391Y-00145*
X00392Y-0014*
X0039Y-00129*
X00384Y-0012*
X00375Y-00114*
X00364Y-00111*
X00353Y-00114*
X00344Y-0012*
X00338Y-00129*
X00336Y-0014*
X00337Y-00145*
X0033Y-00155*
X00324*
X00316*
X00275*
Y-00136*
X00281Y-00132*
X0029Y-00119*
X00293Y-00103*
Y-00053*
X0029Y-00038*
X00281Y-00024*
X00268Y-00015*
X00252Y-00012*
X00237Y-00015*
X00223Y-00024*
X00215Y-00038*
X00212Y-00053*
Y-00103*
X00215Y-00119*
X00223Y-00132*
X00229Y-00136*
Y-00168*
X0023Y-00169*
X00223Y-00177*
X00092*
X00089Y-00161*
X00079Y-00146*
X00064Y-00137*
X00047Y-00133*
X00029Y-00137*
X00015Y-00146*
X0001Y-00154*
X0Y-00151*
Y0*
X00535*
Y-00514*
G37*
G36*
X004Y-00409D02*
X00423D01*
Y-00432*
X004*
Y-00507*
X00451*
X00483Y-00539*
Y-00614*
X00474Y-0062*
X00468Y-00615*
X00452Y-00612*
X00437Y-00615*
X00423Y-00624*
X00415Y-00638*
X00412Y-00653*
Y-00703*
X00415Y-00719*
X00423Y-00732*
X00427Y-00735*
X00424Y-00745*
X00371*
X00368Y-00735*
X00377Y-00728*
X00385Y-00717*
X00388Y-00703*
Y-00686*
X00352*
X00317*
Y-00703*
X00319Y-00717*
X00327Y-00728*
X00336Y-00735*
X00333Y-00745*
X00302*
X00292Y-00743*
Y-00735*
Y-00645*
X00335Y-00602*
X00376*
Y-00512*
X00368*
X00366Y-0051*
X00364Y-00499*
X00361Y-00494*
Y-00492*
X00363Y-00485*
Y-00449*
X00361Y-0044*
X00355Y-00432*
X00348Y-00427*
X00338Y-00425*
X00335Y-00426*
X00334Y-00418*
X00329Y-0041*
X00323Y-00404*
X00326Y-00395*
X004*
Y-00409*
G37*
%LNencoderdebouncer-2*%
%LPC*%
G36*
X00054Y-0044D02*
Y-00471D01*
X00086*
X00084Y-00463*
X00075Y-0045*
X00062Y-00441*
X00054Y-0044*
G37*
G36*
X00086Y-00486D02*
X00054D01*
Y-00517*
X00062Y-00516*
X00075Y-00507*
X00084Y-00494*
X00086Y-00486*
G37*
G36*
X0046Y-00019D02*
Y-00071D01*
X00488*
Y-00053*
X00485Y-0004*
X00477Y-00028*
X00466Y-0002*
X0046Y-00019*
G37*
G36*
X00445D02*
X00439Y-0002D01*
X00427Y-00028*
X00419Y-0004*
X00417Y-00053*
Y-00071*
X00445*
Y-00019*
G37*
G36*
Y-00086D02*
X00417D01*
Y-00103*
X00419Y-00117*
X00427Y-00128*
X00439Y-00136*
X00445Y-00137*
Y-00086*
G37*
G36*
X00488D02*
X0046D01*
Y-00137*
X00466Y-00136*
X00477Y-00128*
X00485Y-00117*
X00488Y-00103*
Y-00086*
G37*
G36*
X0036Y-00619D02*
Y-00671D01*
X00388*
Y-00653*
X00385Y-0064*
X00377Y-00628*
X00366Y-0062*
X0036Y-00619*
G37*
G36*
X00345D02*
X00339Y-0062D01*
X00327Y-00628*
X00319Y-0064*
X00317Y-00653*
Y-00671*
X00345*
Y-00619*
G37*
%LNencoderdebouncer-3*%
%LPD*%
G54D16*
X00352Y-00678D02*
Y-00643D01*
G54D17*
X00445Y-00291D02*
X00445Y-00292D01*
X00364Y-00141D02*
X00365Y-0014D01*
X00364Y-002D02*
Y-00141D01*
X00338Y-0051D02*
Y-00467D01*
Y-00557D02*
Y-0051D01*
X00218Y-00372D02*
X00445D01*
X00125Y-00279D02*
X00218Y-00372D01*
X00115Y-00379D02*
X00145Y-0041D01*
X00313Y-00337D02*
Y-00292D01*
X00287Y-00528D02*
Y-00467D01*
X00258Y-00557D02*
X00287Y-00528D01*
X00338Y-00567D02*
Y-00557D01*
X00252Y-00653D02*
X00338Y-00567D01*
X00252Y-00678D02*
Y-00653D01*
X00047Y-00379D02*
X00115D01*
X00145Y-0041D02*
X00295D01*
X00313Y-00427*
Y-00467D02*
Y-00427D01*
X00445Y-0047D02*
X00505Y-0053D01*
Y-00625D02*
Y-0053D01*
X00452Y-00678D02*
X00505Y-00625D01*
X00047Y-00279D02*
X00125D01*
X00047Y-00179D02*
X00068Y-002D01*
X00284*
X00252Y-00168D02*
Y-00078D01*
Y-00168D02*
X00284Y-002D01*
X00364Y-00292D02*
Y-002D01*
Y-00292D02*
X00445D01*
Y-0047D02*
Y-00372D01*
G54D18*
X00252Y-00678D03*
G54D19*
X00352Y-00678D03*
X00452D03*
X00252Y-00078D03*
X00452D03*
G54D20*
X00047Y-00179D03*
Y-00279D03*
Y-00379D03*
Y-00479D03*
G54D21*
X00047Y-00579D03*
G54D22*
X0019Y-00579D03*
X00364Y-0014D03*
X00338Y-0051D03*
X00313Y-00337D03*
G54D23*
X00364Y-002D03*
X00284D03*
X00258Y-00557D03*
X00338D03*
G54D24*
X00445Y-00292D03*
Y-00372D03*
Y-0047D03*
Y-0055D03*
G54D25*
X00287Y-00292D03*
X00313D03*
X00338D03*
X00364D03*
X00287Y-00467D03*
X00313D03*
X00338D03*
X00364D03*
G54D26*
X0019Y-00579D02*
X00222D01*
X00047D02*
X0019D01*
X00222D02*
X00258Y-00542D01*
Y-00557D02*
Y-00542D01*
M02*